<?xml version="1.0" encoding="utf-8"?>
<!-- Generator: Adobe Illustrator 20.0.0, SVG Export Plug-In . SVG Version: 6.00 Build 0)  -->
<svg version="1.1" baseProfile="basic" id="Tryb_izolacji"
	 xmlns="http://www.w3.org/2000/svg" xmlns:xlink="http://www.w3.org/1999/xlink" x="0px" y="0px" viewBox="0 0 54 54"
	 xml:space="preserve">
<style type="text/css">
	.st0{fill:#FFFFFF;}
	.st1{fill:#3E5294;}
</style>
<rect x="19" y="12" class="st0" width="25.333" height="38.262"/>
<path class="st1" d="M46.245,4.438H5.659c-1.438,0-2.618,1.175-2.618,2.619v40.587c0,1.437,1.18,2.618,2.618,2.618h23.565V34.143
	h-4.455v-6.068h4.455v-5.181c0-4.069,2.631-7.81,8.695-7.81c2.454,0,4.27,0.236,4.27,0.236l-0.143,5.664
	c0,0-1.851-0.017-3.871-0.017c-2.185,0-2.539,1.009-2.539,2.681v4.427h6.584l-0.286,6.068h-6.298v16.119h10.609
	c1.44,0,2.619-1.182,2.619-2.618V7.057C48.864,5.613,47.685,4.438,46.245,4.438z"/>
</svg>
