<?xml version="1.0" encoding="utf-8"?>
<!-- Generator: Adobe Illustrator 22.0.0, SVG Export Plug-In . SVG Version: 6.00 Build 0)  -->
<svg version="1.1" id="Слой_1" xmlns="http://www.w3.org/2000/svg" xmlns:xlink="http://www.w3.org/1999/xlink" x="0px" y="0px"
	 viewBox="0 0 6.8 6.8" style="enable-background:new 0 0 6.8 6.8;" xml:space="preserve">
<style type="text/css">
	.st0{opacity:0.8;fill:url(#SVGID_1_);}
	.st1{opacity:0.8;fill:url(#SVGID_2_);}
	.st2{opacity:0.8;fill:url(#SVGID_3_);}
	.st3{fill:url(#SVGID_4_);}
	.st4{fill:url(#SVGID_5_);}
</style>
<g>
	<g>
		<g>
			
				<linearGradient id="SVGID_1_" gradientUnits="userSpaceOnUse" x1="-276.8528" y1="877.6184" x2="-269.7082" y2="877.6184" gradientTransform="matrix(-0.7359 0.677 -0.677 -0.7359 396.5551 834.1864)">
				<stop  offset="0" style="stop-color:#3FFFD5"/>
				<stop  offset="1.544617e-02" style="stop-color:#3AE7C6"/>
				<stop  offset="4.569112e-02" style="stop-color:#31BEAE"/>
				<stop  offset="7.968099e-02" style="stop-color:#299897"/>
				<stop  offset="0.1166" style="stop-color:#227883"/>
				<stop  offset="0.1575" style="stop-color:#1D5C73"/>
				<stop  offset="0.2036" style="stop-color:#184666"/>
				<stop  offset="0.2575" style="stop-color:#14355B"/>
				<stop  offset="0.3241" style="stop-color:#122A54"/>
				<stop  offset="0.4176" style="stop-color:#102350"/>
				<stop  offset="0.6769" style="stop-color:#10214F"/>
				<stop  offset="0.9879" style="stop-color:#10214F"/>
			</linearGradient>
			<path class="st0" d="M0.1,3.4c-0.1-0.1-0.1-0.1,0-0.2l3.3-3.1C3.5,0,3.6,0,3.7,0.1l3.1,3.3c0.1,0.1,0,0.1,0,0.2L3.4,6.7
				c-0.1,0.1-0.1,0.1-0.2,0L0.1,3.4z"/>
			
				<linearGradient id="SVGID_2_" gradientUnits="userSpaceOnUse" x1="-439.2194" y1="316.9124" x2="-432.6401" y2="316.9124" gradientTransform="matrix(0.4629 0.8863 -0.8863 0.4629 485.606 242.1803)">
				<stop  offset="0" style="stop-color:#3FFFD5"/>
				<stop  offset="1.544617e-02" style="stop-color:#3AE7C6"/>
				<stop  offset="4.569112e-02" style="stop-color:#31BEAE"/>
				<stop  offset="7.968099e-02" style="stop-color:#299897"/>
				<stop  offset="0.1166" style="stop-color:#227883"/>
				<stop  offset="0.1575" style="stop-color:#1D5C73"/>
				<stop  offset="0.2036" style="stop-color:#184666"/>
				<stop  offset="0.2575" style="stop-color:#14355B"/>
				<stop  offset="0.3241" style="stop-color:#122A54"/>
				<stop  offset="0.4176" style="stop-color:#102350"/>
				<stop  offset="0.6769" style="stop-color:#10214F"/>
				<stop  offset="0.9879" style="stop-color:#10214F"/>
			</linearGradient>
			<path class="st1" d="M2.4,6.8c-0.1,0-0.2,0-0.2-0.1L0,2.4c0-0.1,0-0.2,0.1-0.2L4.3,0c0.1,0,0.2,0,0.2,0.1l2.2,4.3
				c0,0.1,0,0.2-0.1,0.2L2.4,6.8z"/>
			
				<linearGradient id="SVGID_3_" gradientUnits="userSpaceOnUse" x1="-390.8095" y1="192.1638" x2="-383.2262" y2="192.1638" gradientTransform="matrix(0.6991 0.715 -0.715 0.6991 410.9547 145.3513)">
				<stop  offset="0" style="stop-color:#3FFFD5"/>
				<stop  offset="1.544617e-02" style="stop-color:#3AE7C6"/>
				<stop  offset="4.569112e-02" style="stop-color:#31BEAE"/>
				<stop  offset="7.968099e-02" style="stop-color:#299897"/>
				<stop  offset="0.1166" style="stop-color:#227883"/>
				<stop  offset="0.1575" style="stop-color:#1D5C73"/>
				<stop  offset="0.2036" style="stop-color:#184666"/>
				<stop  offset="0.2575" style="stop-color:#14355B"/>
				<stop  offset="0.3241" style="stop-color:#122A54"/>
				<stop  offset="0.4176" style="stop-color:#102350"/>
				<stop  offset="0.6769" style="stop-color:#10214F"/>
				<stop  offset="0.9879" style="stop-color:#10214F"/>
			</linearGradient>
			<path class="st2" d="M3.5,6.3c0,0.1-0.1,0-0.2,0L0.6,3.5c0,0,0-0.1,0-0.2l2.8-2.7c0-0.1,0.1-0.1,0.2,0l2.7,2.8c0,0,0,0.1,0,0.2
				L3.5,6.3z"/>
		</g>
		
			<radialGradient id="SVGID_4_" cx="19.426" cy="-0.8351" r="10.7916" gradientTransform="matrix(0.9999 1.670000e-02 -1.670000e-02 0.9999 -17.1698 5.2471)" gradientUnits="userSpaceOnUse">
			<stop  offset="0.2514" style="stop-color:#FFFFFF"/>
			<stop  offset="0.2671" style="stop-color:#F9F9F9"/>
			<stop  offset="0.2884" style="stop-color:#E8E8E8"/>
			<stop  offset="0.3127" style="stop-color:#CCCCCC"/>
			<stop  offset="0.3394" style="stop-color:#A4A4A4"/>
			<stop  offset="0.3679" style="stop-color:#727272"/>
			<stop  offset="0.3976" style="stop-color:#353535"/>
			<stop  offset="0.421" style="stop-color:#000000"/>
		</radialGradient>
		<path class="st3" d="M3.5,5.7c0,0-0.1,0-0.1,0L1.1,3.5c0,0,0-0.1,0-0.1l2.3-2.2c0,0,0.1,0,0.1,0l2.2,2.3c0,0,0,0.1,0,0.1L3.5,5.7z
			"/>
	</g>
	<g>
		<g>
			<linearGradient id="SVGID_5_" gradientUnits="userSpaceOnUse" x1="3.3938" y1="-0.609" x2="3.3938" y2="4.448">
				<stop  offset="0" style="stop-color:#3FFFD5"/>
				<stop  offset="1.544617e-02" style="stop-color:#3AE7C6"/>
				<stop  offset="4.569112e-02" style="stop-color:#31BEAE"/>
				<stop  offset="7.968099e-02" style="stop-color:#299897"/>
				<stop  offset="0.1166" style="stop-color:#227883"/>
				<stop  offset="0.1575" style="stop-color:#1D5C73"/>
				<stop  offset="0.2036" style="stop-color:#184666"/>
				<stop  offset="0.2575" style="stop-color:#14355B"/>
				<stop  offset="0.3241" style="stop-color:#122A54"/>
				<stop  offset="0.4176" style="stop-color:#102350"/>
				<stop  offset="0.6769" style="stop-color:#10214F"/>
				<stop  offset="0.9879" style="stop-color:#10214F"/>
			</linearGradient>
			<path class="st4" d="M2.8,2.8H3V2.7c0-0.2,0-0.3,0.1-0.4c0-0.1,0.1-0.1,0.2-0.2c0.1-0.1,0.2-0.1,0.3-0.1c0.1,0,0.3,0,0.4,0.1
				L4,2.5c-0.1,0-0.2,0-0.2,0c-0.1,0-0.1,0-0.2,0.1c0,0,0,0.1,0,0.2v0.1h0.4v0.4H3.5v1.5H3V3.2H2.8V2.8z"/>
		</g>
	</g>
</g>
</svg>
