<?xml version="1.0" encoding="utf-8"?>
<!-- Generator: Adobe Illustrator 22.0.0, SVG Export Plug-In . SVG Version: 6.00 Build 0)  -->
<svg version="1.1" id="Слой_1" xmlns="http://www.w3.org/2000/svg" xmlns:xlink="http://www.w3.org/1999/xlink" x="0px" y="0px"
	 viewBox="0 0 6.8 6.8" style="enable-background:new 0 0 6.8 6.8;" xml:space="preserve">
<style type="text/css">
	.st0{opacity:0.8;fill:url(#SVGID_1_);}
	.st1{opacity:0.8;fill:url(#SVGID_2_);}
	.st2{opacity:0.8;fill:url(#SVGID_3_);}
	.st3{fill:url(#SVGID_4_);}
	.st4{fill:#F2F2F2;}
	.st5{fill:#F14336;}
	.st6{fill:#D32E2A;}
</style>
<g>
	<g>
		
			<linearGradient id="SVGID_1_" gradientUnits="userSpaceOnUse" x1="-275.841" y1="879.0204" x2="-268.6953" y2="879.0204" gradientTransform="matrix(-0.7359 0.677 -0.677 -0.7359 398.2491 834.5321)">
			<stop  offset="0" style="stop-color:#FBB03B"/>
			<stop  offset="0.4242" style="stop-color:#F15A24"/>
			<stop  offset="0.9879" style="stop-color:#DB0C0B"/>
		</linearGradient>
		<path class="st0" d="M0.1,3.4c-0.1-0.1-0.1-0.1,0-0.2l3.3-3.1C3.5,0,3.6,0,3.7,0.1l3.1,3.3c0.1,0.1,0,0.1,0,0.2L3.4,6.7
			c-0.1,0.1-0.2,0.1-0.2,0L0.1,3.4z"/>
		
			<linearGradient id="SVGID_2_" gradientUnits="userSpaceOnUse" x1="-439.2467" y1="317.8739" x2="-432.6675" y2="317.8739" gradientTransform="matrix(0.4629 0.8863 -0.8863 0.4629 486.4706 241.7596)">
			<stop  offset="0" style="stop-color:#FBB03B"/>
			<stop  offset="0.4242" style="stop-color:#F15A24"/>
			<stop  offset="0.9879" style="stop-color:#DB0C0B"/>
		</linearGradient>
		<path class="st1" d="M2.4,6.8c-0.1,0-0.2,0-0.2-0.1L0,2.4c0-0.1,0-0.2,0.1-0.2L4.3,0c0.1,0,0.2,0,0.2,0.1l2.2,4.3
			c0,0.1,0,0.2-0.1,0.2L2.4,6.8z"/>
		
			<linearGradient id="SVGID_3_" gradientUnits="userSpaceOnUse" x1="-390.9362" y1="192.8724" x2="-383.3519" y2="192.8724" gradientTransform="matrix(0.6991 0.715 -0.715 0.6991 411.549 144.9453)">
			<stop  offset="0" style="stop-color:#FBB03B"/>
			<stop  offset="0.4242" style="stop-color:#F15A24"/>
			<stop  offset="0.9879" style="stop-color:#DB0C0B"/>
		</linearGradient>
		<path class="st2" d="M3.5,6.3c0,0-0.1,0-0.2,0L0.6,3.5c0,0,0-0.1,0-0.2l2.8-2.7c0-0.1,0.1-0.1,0.2,0l2.7,2.8c0,0.1,0,0.1,0,0.2
			L3.5,6.3z"/>
	</g>
	
		<radialGradient id="SVGID_4_" cx="19.4175" cy="-0.8213" r="10.791" gradientTransform="matrix(0.9999 1.670000e-02 -1.670000e-02 0.9999 -17.1613 5.2341)" gradientUnits="userSpaceOnUse">
		<stop  offset="0.2514" style="stop-color:#FFFFFF"/>
		<stop  offset="0.2671" style="stop-color:#F9F9F9"/>
		<stop  offset="0.2884" style="stop-color:#E8E8E8"/>
		<stop  offset="0.3127" style="stop-color:#CCCCCC"/>
		<stop  offset="0.3394" style="stop-color:#A4A4A4"/>
		<stop  offset="0.3679" style="stop-color:#727272"/>
		<stop  offset="0.3976" style="stop-color:#353535"/>
		<stop  offset="0.421" style="stop-color:#000000"/>
	</radialGradient>
	<path class="st3" d="M3.5,5.7c0,0-0.1,0-0.1,0L1.1,3.5c0,0,0-0.1,0-0.1l2.3-2.2c0,0,0.1,0,0.1,0l2.2,2.3c0,0,0,0.1,0,0.1L3.5,5.7z"
		/>
</g>
<g>
	<polygon class="st4" points="4.4,2.8 4.3,4.2 2.6,4.2 2.5,2.8 3.4,3.3 	"/>
	<polygon class="st4" points="4.4,2.5 3.4,3.4 2.5,2.5 3.4,2.5 	"/>
</g>
<path class="st5" d="M2.6,2.9v1.3H2.4c-0.1,0-0.1,0-0.1-0.1V2.7l0.2,0L2.6,2.9z"/>
<path class="st6" d="M4.5,2.7v1.4c0,0.1,0,0.1-0.1,0.1H4.3V2.9l0.1-0.2L4.5,2.7z"/>
<path class="st5" d="M4.5,2.6v0.1L4.3,2.9L3.4,3.5L2.6,2.9L2.3,2.7V2.6c0-0.1,0-0.1,0.1-0.1h0.1l0.9,0.7l0.9-0.7h0.1
	C4.5,2.5,4.5,2.6,4.5,2.6z"/>
<polygon class="st6" points="2.6,2.9 2.3,2.9 2.3,2.7 "/>
</svg>
