<svg xmlns="http://www.w3.org/2000/svg" xmlns:xlink="http://www.w3.org/1999/xlink" viewBox="0 0 6.79 6.79"><defs><linearGradient id="linear-gradient" x1="-338.71" y1="805.49" x2="-331.56" y2="805.49" gradientTransform="translate(-331.34 808.95) rotate(179.98)" gradientUnits="userSpaceOnUse"><stop offset="0" stop-color="#fbb03b"/><stop offset="0.42" stop-color="#f15a24"/><stop offset="0.99" stop-color="#db0c0b"/></linearGradient><linearGradient id="linear-gradient-2" x1="-442.11" y1="264.14" x2="-435.53" y2="264.14" gradientTransform="translate(267.56 441.15) rotate(89.99)" xlink:href="#linear-gradient"/><linearGradient id="linear-gradient-3" x1="-387.19" y1="152.77" x2="-379.6" y2="152.77" gradientTransform="translate(380.26 170.3) rotate(45.64)" xlink:href="#linear-gradient"/><radialGradient id="radial-gradient" cx="19.82" cy="-1.59" r="10.79" gradientTransform="translate(-17.58 6) rotate(0.96)" gradientUnits="userSpaceOnUse"><stop offset="0.25" stop-color="#fff"/><stop offset="0.27" stop-color="#f9f9f9"/><stop offset="0.29" stop-color="#e8e8e8"/><stop offset="0.31" stop-color="#ccc"/><stop offset="0.34" stop-color="#a4a4a4"/><stop offset="0.37" stop-color="#727272"/><stop offset="0.4" stop-color="#353535"/><stop offset="0.42"/></radialGradient></defs><title>gmail_my</title><g style="isolation:isolate"><g id="Слой_1" data-name="Слой 1"><path d="M1.17,1H5.7a.15.15,0,0,1,.15.15V5.67a.14.14,0,0,1-.14.14H1.17A.14.14,0,0,1,1,5.67V1.14A.15.15,0,0,1,1.17,1Z" transform="translate(-1.4 3.23) rotate(-42.6)" style="opacity:0.8;mix-blend-mode:multiply;fill:url(#linear-gradient)"/><path d="M1,.84H5.8A.15.15,0,0,1,5.95,1V5.8a.15.15,0,0,1-.15.15H1a.15.15,0,0,1-.15-.15V1A.16.16,0,0,1,1,.84Z" transform="translate(-1.19 1.96) rotate(-27.57)" style="opacity:0.8;mix-blend-mode:multiply;fill:url(#linear-gradient-2)"/><path d="M3.47,6.27a.13.13,0,0,1-.18,0L.55,3.46a.12.12,0,0,1,0-.18L3.36.54a.12.12,0,0,1,.18,0l2.74,2.8a.13.13,0,0,1,0,.18Z" transform="translate(0)" style="opacity:0.8;mix-blend-mode:multiply;fill:url(#linear-gradient-3)"/><path d="M3.5,5.74a.1.1,0,0,1-.14,0L1.12,3.45a.1.1,0,0,1,0-.14L3.41,1.07a.1.1,0,0,1,.14,0L5.79,3.36a.1.1,0,0,1,0,.14Z" transform="translate(0)" style="fill:url(#radial-gradient)"/><polygon points="4.35 2.89 4.22 4.17 2.69 4.17 2.58 2.91 3.46 3.4 4.35 2.89" style="fill:#f2f2f2"/><polygon points="4.31 2.65 3.46 3.45 2.6 2.65 3.46 2.65 4.31 2.65" style="fill:#f2f2f2"/><path d="M2.69,3V4.17H2.55a.09.09,0,0,1-.09-.09V2.84h.15Z" transform="translate(0)" style="fill:#d32e2a"/><path d="M4.46,2.84V4.08a.09.09,0,0,1-.09.09H4.22V3l.08-.18Z" transform="translate(0)" style="fill:#d32e2a"/><path d="M4.46,2.74v.11L4.22,3l-.77.56L2.69,3l-.23-.17V2.74a.09.09,0,0,1,.09-.09H2.6l.85.62.85-.62h.05A.09.09,0,0,1,4.46,2.74Z" transform="translate(0)" style="fill:#f14336"/></g></g></svg>