<svg xmlns="http://www.w3.org/2000/svg" xmlns:xlink="http://www.w3.org/1999/xlink" viewBox="0 0 6.79 6.79"><defs><linearGradient id="linear-gradient" x1="-275.84" y1="879.02" x2="-268.7" y2="879.02" gradientTransform="translate(-268.46 882.45) rotate(179.98)" gradientUnits="userSpaceOnUse"><stop offset="0" stop-color="#fbb03b"/><stop offset="0.42" stop-color="#f15a24"/><stop offset="0.99" stop-color="#db0c0b"/></linearGradient><linearGradient id="linear-gradient-2" x1="-439.25" y1="317.87" x2="-432.67" y2="317.87" gradientTransform="translate(321.29 438.28) rotate(89.99)" xlink:href="#linear-gradient"/><linearGradient id="linear-gradient-3" x1="-390.94" y1="192.87" x2="-383.35" y2="192.87" gradientTransform="translate(411.55 144.95) rotate(45.64)" xlink:href="#linear-gradient"/><radialGradient id="radial-gradient" cx="19.42" cy="-0.82" r="10.79" gradientTransform="translate(-17.16 5.23) rotate(0.96)" gradientUnits="userSpaceOnUse"><stop offset="0.25" stop-color="#fff"/><stop offset="0.27" stop-color="#f9f9f9"/><stop offset="0.29" stop-color="#e8e8e8"/><stop offset="0.31" stop-color="#ccc"/><stop offset="0.34" stop-color="#a4a4a4"/><stop offset="0.37" stop-color="#727272"/><stop offset="0.4" stop-color="#353535"/><stop offset="0.42"/></radialGradient></defs><title>gmail_me</title><g style="isolation:isolate"><g id="Слой_1" data-name="Слой 1"><path d="M1.17,1H5.7a.15.15,0,0,1,.15.15V5.67a.15.15,0,0,1-.15.15H1.17A.14.14,0,0,1,1,5.67V1.14A.15.15,0,0,1,1.17,1Z" transform="translate(-1.4 3.23) rotate(-42.6)" style="opacity:0.8;mix-blend-mode:multiply;fill:url(#linear-gradient)"/><path d="M1,.84H5.8A.15.15,0,0,1,5.95,1V5.8a.15.15,0,0,1-.15.15H1a.15.15,0,0,1-.15-.15V1A.16.16,0,0,1,1,.84Z" transform="translate(-1.19 1.96) rotate(-27.57)" style="opacity:0.8;mix-blend-mode:multiply;fill:url(#linear-gradient-2)"/><path d="M3.47,6.27a.13.13,0,0,1-.18,0L.55,3.46a.12.12,0,0,1,0-.18L3.36.54a.12.12,0,0,1,.18,0l2.74,2.8a.13.13,0,0,1,0,.18Z" transform="translate(0)" style="opacity:0.8;mix-blend-mode:multiply;fill:url(#linear-gradient-3)"/><path d="M3.5,5.74a.1.1,0,0,1-.14,0L1.12,3.45a.1.1,0,0,1,0-.14L3.41,1.07a.1.1,0,0,1,.14,0L5.79,3.36a.1.1,0,0,1,0,.14Z" transform="translate(0)" style="fill:url(#radial-gradient)"/><polygon points="4.43 2.78 4.29 4.2 2.59 4.2 2.48 2.81 3.44 3.35 4.43 2.78" style="fill:#f2f2f2"/><polygon points="4.38 2.51 3.44 3.4 2.5 2.51 3.44 2.51 4.38 2.51" style="fill:#f2f2f2"/><path d="M2.59,2.92V4.2H2.44a.1.1,0,0,1-.1-.1V2.73H2.5Z" transform="translate(0)" style="fill:#f14336"/><path d="M4.55,2.73V4.1a.1.1,0,0,1-.1.1H4.29V2.92l.09-.2Z" transform="translate(0)" style="fill:#d32e2a"/><path d="M4.55,2.62v.12l-.26.19-.85.62-.85-.62-.26-.19V2.62a.1.1,0,0,1,.1-.1H2.5l.94.69.94-.69h.06A.1.1,0,0,1,4.55,2.62Z" transform="translate(0)" style="fill:#f14336"/><polygon points="2.59 2.92 2.33 2.88 2.33 2.73 2.59 2.92" style="fill:#d32e2a"/></g></g></svg>