<svg xmlns="http://www.w3.org/2000/svg" xmlns:xlink="http://www.w3.org/1999/xlink" viewBox="0 0 6.79 6.79"><defs><linearGradient id="linear-gradient" x1="-348.07" y1="802.76" x2="-340.92" y2="802.76" gradientTransform="matrix(-0.74, 0.68, -0.68, -0.74, 293.47, 827.31)" gradientUnits="userSpaceOnUse"><stop offset="0" stop-color="#c3ffff"/><stop offset="0.42" stop-color="#3fbfff"/><stop offset="0.99" stop-color="#005fff"/></linearGradient><linearGradient id="linear-gradient-2" x1="-445.31" y1="259.77" x2="-438.73" y2="259.77" gradientTransform="translate(263.1 444.4) rotate(90)" xlink:href="#linear-gradient"/><linearGradient id="linear-gradient-3" x1="-389.08" y1="149.18" x2="-381.5" y2="149.18" gradientTransform="translate(379.02 174.16) rotate(45.64)" xlink:href="#linear-gradient"/><radialGradient id="radial-gradient" cx="19.81" cy="-1.68" r="10.79" gradientTransform="translate(-17.57 6.08) rotate(0.96)" gradientUnits="userSpaceOnUse"><stop offset="0.25" stop-color="#fff"/><stop offset="0.27" stop-color="#f9f9f9"/><stop offset="0.29" stop-color="#e8e8e8"/><stop offset="0.31" stop-color="#ccc"/><stop offset="0.34" stop-color="#a4a4a4"/><stop offset="0.37" stop-color="#727272"/><stop offset="0.4" stop-color="#353535"/><stop offset="0.42"/></radialGradient></defs><title>linkedin_my</title><g style="isolation:isolate"><g id="Слой_1" data-name="Слой 1"><path d="M.13,3.37a.15.15,0,0,1,0-.21L3.47.1a.15.15,0,0,1,.21,0L6.75,3.44a.15.15,0,0,1,0,.2L3.4,6.71a.14.14,0,0,1-.2,0Z" style="opacity:0.8;mix-blend-mode:multiply;fill:url(#linear-gradient)"/><rect x="0.84" y="0.84" width="5.11" height="5.11" rx="0.15" ry="0.15" transform="translate(-1.19 1.96) rotate(-27.58)" style="opacity:0.8;mix-blend-mode:multiply;fill:url(#linear-gradient-2)"/><path d="M3.47,6.27a.13.13,0,0,1-.18,0L.55,3.46a.12.12,0,0,1,0-.18L3.36.54a.12.12,0,0,1,.18,0l2.74,2.8a.13.13,0,0,1,0,.18Z" style="opacity:0.8;mix-blend-mode:multiply;fill:url(#linear-gradient-3)"/><path d="M3.5,5.74a.1.1,0,0,1-.14,0L1.12,3.45a.1.1,0,0,1,0-.14L3.41,1.07a.1.1,0,0,1,.14,0L5.79,3.36a.1.1,0,0,1,0,.14Z" style="fill:url(#radial-gradient)"/><path d="M2.5,3.06h.39V4.34H2.5V3.06Z" style="fill:#0077b5"/><path d="M3.22,3.06h.38v.21A.55.55,0,0,1,4,3.07c.22,0,.43.09.43.39v.88H4V3.67c0-.15,0-.24-.21-.24s-.22,0-.22.23v.68H3.22V3.06Z" style="fill:#0077b5"/><path d="M2.91,2.65a.22.22,0,1,1-.22-.22.22.22,0,0,1,.22.22Z" style="fill:#0077b5"/></g></g></svg>