<?xml version="1.0" encoding="utf-8"?>
<!-- Generator: Adobe Illustrator 22.0.0, SVG Export Plug-In . SVG Version: 6.00 Build 0)  -->
<svg version="1.1" id="Слой_1" xmlns="http://www.w3.org/2000/svg" xmlns:xlink="http://www.w3.org/1999/xlink" x="0px" y="0px"
	 viewBox="0 0 6.8 6.8" style="enable-background:new 0 0 6.8 6.8;" xml:space="preserve">
<style type="text/css">
	.st0{opacity:0.8;fill:url(#SVGID_1_);}
	.st1{opacity:0.8;fill:url(#SVGID_2_);}
	.st2{opacity:0.8;fill:url(#SVGID_3_);}
	.st3{fill:url(#SVGID_4_);}
	.st4{fill-rule:evenodd;clip-rule:evenodd;fill:url(#SVGID_5_);}
	.st5{fill-rule:evenodd;clip-rule:evenodd;fill:#FFFFFF;}
</style>
<g>
	<g>
		<g>
			
				<linearGradient id="SVGID_1_" gradientUnits="userSpaceOnUse" x1="-275.4115" y1="879.6325" x2="-268.2664" y2="879.6325" gradientTransform="matrix(-0.7359 0.677 -0.677 -0.7359 398.9795 834.6926)">
				<stop  offset="0" style="stop-color:#C3FFFF"/>
				<stop  offset="0.4242" style="stop-color:#3FBFFF"/>
				<stop  offset="0.9879" style="stop-color:#005FFF"/>
			</linearGradient>
			<path class="st0" d="M0.1,3.4c-0.1-0.1-0.1-0.1,0-0.2l3.3-3.1C3.5,0,3.6,0,3.7,0.1l3.1,3.3c0.1,0.1,0,0.1,0,0.2L3.4,6.7
				c-0.1,0.1-0.1,0.1-0.2,0L0.1,3.4z"/>
			
				<linearGradient id="SVGID_2_" gradientUnits="userSpaceOnUse" x1="-439.2647" y1="318.2892" x2="-432.6854" y2="318.2892" gradientTransform="matrix(0.4629 0.8863 -0.8863 0.4629 486.8474 241.5833)">
				<stop  offset="0" style="stop-color:#C3FFFF"/>
				<stop  offset="0.4242" style="stop-color:#3FBFFF"/>
				<stop  offset="0.9879" style="stop-color:#005FFF"/>
			</linearGradient>
			<path class="st1" d="M2.4,6.8c-0.1,0-0.2,0-0.2-0.1L0,2.4c0-0.1,0-0.2,0.1-0.2L4.3,0c0.1,0,0.2,0,0.2,0.1l2.2,4.3
				c0,0.1,0,0.2-0.1,0.2L2.4,6.8z"/>
			
				<linearGradient id="SVGID_3_" gradientUnits="userSpaceOnUse" x1="-390.9934" y1="193.1783" x2="-383.4107" y2="193.1783" gradientTransform="matrix(0.6991 0.715 -0.715 0.6991 411.8087 144.7736)">
				<stop  offset="0" style="stop-color:#C3FFFF"/>
				<stop  offset="0.4242" style="stop-color:#3FBFFF"/>
				<stop  offset="0.9879" style="stop-color:#005FFF"/>
			</linearGradient>
			<path class="st2" d="M3.5,6.3c0,0.1-0.1,0-0.2,0L0.6,3.5c0,0,0-0.1,0-0.2l2.8-2.7c0-0.1,0.1-0.1,0.2,0l2.7,2.8c0,0,0,0.1,0,0.2
				L3.5,6.3z"/>
		</g>
		
			<radialGradient id="SVGID_4_" cx="19.414" cy="-0.8164" r="10.7907" gradientTransform="matrix(0.9999 1.670000e-02 -1.670000e-02 0.9999 -17.1576 5.2285)" gradientUnits="userSpaceOnUse">
			<stop  offset="0.2514" style="stop-color:#FFFFFF"/>
			<stop  offset="0.2671" style="stop-color:#F9F9F9"/>
			<stop  offset="0.2884" style="stop-color:#E8E8E8"/>
			<stop  offset="0.3127" style="stop-color:#CCCCCC"/>
			<stop  offset="0.3394" style="stop-color:#A4A4A4"/>
			<stop  offset="0.3679" style="stop-color:#727272"/>
			<stop  offset="0.3976" style="stop-color:#353535"/>
			<stop  offset="0.421" style="stop-color:#000000"/>
		</radialGradient>
		<path class="st3" d="M3.5,5.7c0,0-0.1,0-0.1,0L1.1,3.5c0,0,0-0.1,0-0.1l2.3-2.2c0,0,0.1,0,0.1,0l2.2,2.3c0,0,0,0.1,0,0.1L3.5,5.7z
			"/>
	</g>
	<g>
		<g>
			<g>
				<g>
					<linearGradient id="SVGID_5_" gradientUnits="userSpaceOnUse" x1="3.3942" y1="0.1277" x2="3.3942" y2="4.4849">
						<stop  offset="0" style="stop-color:#C3FFFF"/>
						<stop  offset="0.4242" style="stop-color:#3FBFFF"/>
						<stop  offset="0.9879" style="stop-color:#005FFF"/>
					</linearGradient>
					<path class="st4" d="M4.5,3.8C4.5,3.8,4.5,3.8,4.5,3.8C4.5,3.8,4.5,3.8,4.5,3.8C4.5,3.8,4.5,3.8,4.5,3.8L4.5,3.8
						c0-0.1,0-0.2-0.1-0.2c0,0,0,0,0,0c0,0,0,0,0,0c0,0,0,0,0,0c0,0,0,0,0,0c0,0,0,0,0,0c0,0,0,0,0,0c0,0,0,0,0,0c0,0,0,0,0,0
						c0,0,0,0,0,0c0,0,0,0,0,0c0,0,0,0,0,0v0c0,0,0,0,0,0l0,0c0,0,0,0,0,0c0,0,0,0,0-0.1v0c0,0,0-0.1,0-0.1c0,0,0,0,0-0.1l0,0
						c0,0,0,0,0,0c0,0,0,0,0,0c0,0,0,0,0,0c0,0,0,0,0,0c0,0,0,0,0-0.1c0,0,0-0.1,0-0.1c0,0,0,0,0,0c0,0,0,0,0,0
						c0-0.1-0.1-0.1-0.1-0.2c0,0,0,0,0,0c0,0,0,0-0.1-0.1c0,0,0,0,0,0c0,0,0,0,0,0c0,0,0,0,0,0c0,0,0,0,0,0c0,0,0,0-0.1-0.1
						c0,0,0,0,0,0c0,0,0,0,0,0C3.9,2.5,3.8,2.5,3.7,2.4c0,0-0.1,0-0.1,0l0,0c0,0,0,0,0,0l0,0c0,0,0,0,0,0l0,0c0,0,0,0,0,0h0h0
						c0,0,0,0,0,0c0,0,0,0,0,0l0,0h0c0,0,0,0,0,0c0,0,0,0,0,0l0,0c0,0,0,0,0,0l0,0c0,0,0,0,0,0c0,0,0,0,0,0l0,0h0c0,0,0,0,0,0l0,0
						l0,0c0,0,0,0,0,0c0,0,0,0,0,0c0,0,0,0,0,0l0,0c0,0,0,0,0,0c0,0,0,0,0,0c0,0,0,0,0,0c0,0,0,0,0,0h0c0,0,0,0,0,0c0,0,0,0,0,0
						c0,0,0,0,0,0c0,0,0,0,0,0c0,0,0,0,0,0c0,0,0,0-0.1,0c0,0,0,0-0.1,0h0c0,0,0,0,0,0c0,0,0,0,0,0c0,0,0,0,0,0c0,0,0,0,0,0l0,0h0
						c0,0,0,0,0,0c0,0,0,0,0,0l0,0l0,0c0,0,0,0,0,0h0l0,0c0,0,0,0,0,0c0,0,0,0,0,0C3.1,2.4,3,2.3,3,2.3v0c0,0,0,0,0,0c0,0,0,0,0,0
						c0,0,0,0,0,0c0,0,0,0,0,0c0,0,0,0,0,0c0,0,0,0,0,0c0,0,0,0,0,0c0,0,0,0,0,0c-0.1,0-0.1,0-0.2,0.1c0,0-0.1,0.1-0.1,0.1
						c0,0,0,0,0,0c0,0-0.1,0.1-0.1,0.1c0,0,0,0.1,0,0.1c0,0,0,0.1,0,0.1c0,0,0,0,0,0c0,0,0,0,0,0c0,0,0,0,0,0c0,0,0,0,0,0
						c0,0,0,0,0,0c0,0,0,0,0,0h0c0,0.1,0,0.1,0,0.2c0,0,0,0.1,0,0.1c0,0,0,0,0,0c0,0,0,0,0,0.1c0,0,0,0,0,0c0,0,0,0.1,0,0.1
						c0,0,0,0,0,0.1c0,0,0,0,0,0c0,0,0,0,0,0c0,0,0,0,0,0c0,0,0,0,0,0l0,0l0,0c0,0,0,0,0,0l0,0c0,0,0,0,0,0c0,0,0,0,0,0l0,0l0,0
						c0,0,0,0,0,0c0,0.1,0,0.2,0.1,0.2c0,0,0,0.1,0,0.1c0,0,0,0,0,0c0,0,0,0.1,0.1,0.1c0,0,0,0,0.1,0.1c0,0,0,0,0,0c0,0,0,0,0,0
						c0,0,0,0,0,0c0,0,0,0,0,0c0,0,0,0,0,0c0,0,0.1,0.1,0.1,0.1c0,0,0,0,0.1,0c0,0,0,0,0,0c0,0,0,0,0,0c0,0,0,0,0,0c0,0,0.1,0,0.1,0
						c0,0,0,0,0.1,0c0,0,0,0,0,0c0,0,0,0,0,0c0,0,0,0,0,0c0,0,0,0,0,0c0,0,0,0,0,0l0,0c0,0,0,0,0,0l0,0l0,0c0,0,0,0,0,0c0,0,0,0,0,0
						c0,0,0,0,0,0l0,0l0,0c0,0,0,0,0,0l0,0l0,0c0,0,0,0,0,0l0,0h0c0,0,0,0,0,0c0,0,0,0,0,0h0c0,0,0,0,0,0c0,0,0,0,0,0c0,0,0,0,0,0
						c0,0,0,0,0,0c0,0,0,0,0,0c0,0,0,0,0,0h0c0,0,0,0,0,0c0,0,0,0,0,0h0c0,0,0,0,0,0l0,0l0,0c0,0,0,0,0,0h0c0,0,0,0,0,0
						c0.1,0,0.1,0,0.2,0c0,0,0,0,0.1,0c0,0,0,0,0,0c0.1,0,0.2,0.1,0.3,0.1l0,0c0,0,0,0,0,0c0,0,0,0,0,0c0,0,0,0,0,0c0,0,0,0,0,0
						c0,0,0,0,0,0c0,0,0,0,0,0c0,0,0,0,0,0l0,0c0,0,0,0,0,0c0,0,0.1,0,0.1,0c0,0,0.1,0,0.1,0c0,0,0.1-0.1,0.1-0.1c0,0,0,0,0-0.1
						c0,0,0.1-0.1,0.1-0.1c0,0,0-0.1,0-0.1C4.4,4,4.5,3.9,4.5,3.8C4.5,3.9,4.5,3.9,4.5,3.8C4.5,3.9,4.5,3.9,4.5,3.8
						C4.5,3.9,4.5,3.9,4.5,3.8C4.5,3.9,4.5,3.8,4.5,3.8C4.5,3.8,4.5,3.8,4.5,3.8z M3.6,2.4C3.6,2.4,3.6,2.4,3.6,2.4
						C3.6,2.4,3.6,2.4,3.6,2.4L3.6,2.4z M3.6,2.4C3.6,2.4,3.6,2.4,3.6,2.4C3.6,2.4,3.6,2.4,3.6,2.4L3.6,2.4z"/>
				</g>
				<g>
					<path class="st5" d="M3.2,2.8C3.2,2.8,3.2,2.8,3.2,2.8C3.2,2.8,3.2,2.8,3.2,2.8C3.2,2.8,3.2,2.8,3.2,2.8
						C3.3,2.8,3.3,2.8,3.2,2.8C3.3,2.8,3.3,2.8,3.2,2.8C3.3,2.8,3.3,2.8,3.2,2.8C3.3,2.8,3.3,2.8,3.2,2.8L3.2,2.8
						C3.3,2.8,3.3,2.8,3.2,2.8L3.2,2.8C3.3,2.8,3.3,2.8,3.2,2.8L3.2,2.8c0.1,0,0.1,0,0.1,0c0,0,0,0,0,0c0,0,0,0,0,0c0,0,0,0,0,0
						c0,0,0,0,0,0c0,0,0.1,0,0.1,0c0.1,0,0.2,0,0.2,0.1c0,0,0,0,0.1,0.1c0,0,0,0,0.1,0.1c0,0,0,0,0,0c0,0,0,0,0,0s0,0,0,0
						c0,0,0,0,0,0c0,0,0,0,0,0.1c0,0.1-0.1,0.1-0.1,0.1c0,0,0,0,0,0c0,0,0,0,0,0c0,0,0,0-0.1-0.1c0,0,0,0,0,0h0c0,0,0,0,0,0
						c0,0-0.1,0-0.1,0c0,0,0,0-0.1,0c0,0-0.1,0-0.1,0c0,0,0,0-0.1,0.1c0,0,0,0,0,0.1c0,0,0,0,0.1,0c0,0,0.1,0,0.1,0c0,0,0,0,0,0
						c0,0,0,0,0.1,0c0,0,0.1,0,0.1,0c0,0,0,0,0.1,0c0,0,0,0,0,0c0,0,0,0,0.1,0c0.1,0,0.1,0.1,0.2,0.1c0,0,0,0,0,0c0,0,0,0,0,0.1
						c0,0,0,0.1,0,0.1c0,0,0,0,0,0c0,0,0,0,0,0c0,0,0,0,0,0c0,0,0,0,0,0c0,0,0,0,0,0c0,0.1-0.1,0.1-0.1,0.2c0,0,0,0,0,0s0,0,0,0
						c0,0,0,0,0,0c0,0,0,0,0,0c0,0,0,0,0,0c0,0,0,0,0,0c0,0,0,0,0,0c0,0,0,0,0,0c0,0,0,0,0,0c0,0,0,0-0.1,0c0,0,0,0,0,0c0,0,0,0,0,0
						c0,0,0,0,0,0c0,0,0,0,0,0h0c0,0-0.1,0-0.1,0C3.3,4,3.3,4,3.2,4c0,0,0,0,0,0c0,0,0,0,0,0c0,0,0,0,0,0c0,0,0,0-0.1,0
						C3,3.9,3,3.9,2.9,3.8h0c0,0,0,0,0,0c0,0,0,0,0-0.1c0,0,0,0,0,0c0,0,0,0,0,0c0,0,0,0,0,0c0,0,0,0,0,0c0,0,0,0,0,0c0,0,0,0,0,0
						c0,0,0,0,0,0c0,0,0,0,0.1,0c0,0,0,0,0,0c0,0,0,0,0,0c0,0,0,0,0,0c0,0,0,0,0,0c0,0,0,0,0,0c0,0,0,0,0.1,0c0,0,0,0,0,0
						c0,0,0,0,0,0c0,0,0,0,0,0c0,0,0.1,0.1,0.1,0.1c0,0,0,0,0,0c0,0,0,0,0.1,0c0,0,0,0,0,0c0,0,0,0,0,0c0,0,0,0,0,0c0,0,0,0,0,0
						c0,0,0,0,0,0c0,0,0,0,0,0c0,0,0,0,0,0c0,0,0,0,0,0c0,0,0,0,0,0c0,0,0,0,0,0c0,0,0,0,0,0c0,0,0,0,0,0c0,0,0.1,0,0.1,0
						c0,0,0-0.1,0.1-0.1c0,0,0-0.1,0-0.1c0,0,0,0,0,0c0,0-0.1,0-0.1,0c0,0-0.1,0-0.1,0c0,0,0,0,0,0c0,0,0,0-0.1,0
						c-0.1,0-0.1,0-0.2-0.1c0,0,0,0,0,0c0,0,0,0,0,0c0,0-0.1-0.1-0.1-0.1c0,0,0,0,0,0c0,0,0,0,0,0c0,0,0,0,0,0c0,0,0,0,0,0v0
						c0,0,0,0,0,0c0,0,0,0,0,0v0c0,0,0,0,0,0c0,0,0,0,0,0c0,0,0,0,0,0c0,0,0,0,0,0c0,0,0,0,0,0c0,0,0,0,0,0c0,0,0,0,0,0c0,0,0,0,0,0
						c0,0,0-0.1,0.1-0.1c0,0,0.1-0.1,0.1-0.1C3.1,2.8,3.1,2.8,3.2,2.8C3.2,2.8,3.2,2.8,3.2,2.8C3.2,2.8,3.2,2.8,3.2,2.8z"/>
				</g>
			</g>
		</g>
	</g>
</g>
</svg>
