<svg xmlns="http://www.w3.org/2000/svg" xmlns:xlink="http://www.w3.org/1999/xlink" viewBox="0 0 6.79 6.79"><defs><linearGradient id="linear-gradient" x1="-340.13" y1="803.49" x2="-332.98" y2="803.49" gradientTransform="matrix(-0.74, 0.68, -0.68, -0.74, 299.8, 822.47)" gradientUnits="userSpaceOnUse"><stop offset="0" stop-color="#c3ffff"/><stop offset="0.42" stop-color="#3fbfff"/><stop offset="0.99" stop-color="#005fff"/></linearGradient><linearGradient id="linear-gradient-2" x1="-442.05" y1="262.77" x2="-435.47" y2="262.77" gradientTransform="translate(438.94 269.75) rotate(62.42)" xlink:href="#linear-gradient"/><linearGradient id="linear-gradient-3" x1="-387" y1="151.77" x2="-379.42" y2="151.77" gradientTransform="translate(379.41 170.87) rotate(45.64)" xlink:href="#linear-gradient"/><radialGradient id="radial-gradient" cx="19.83" cy="-1.61" r="10.79" gradientTransform="translate(-17.59 6.01) rotate(0.96)" gradientUnits="userSpaceOnUse"><stop offset="0.25" stop-color="#fff"/><stop offset="0.27" stop-color="#f9f9f9"/><stop offset="0.29" stop-color="#e8e8e8"/><stop offset="0.31" stop-color="#ccc"/><stop offset="0.34" stop-color="#a4a4a4"/><stop offset="0.37" stop-color="#727272"/><stop offset="0.4" stop-color="#353535"/><stop offset="0.42"/></radialGradient></defs><title>skype_my</title><g style="isolation:isolate"><g id="Слой_1" data-name="Слой 1"><path d="M.13,3.37a.15.15,0,0,1,0-.21L3.47.1a.14.14,0,0,1,.21,0L6.75,3.44a.15.15,0,0,1,0,.2L3.4,6.71a.14.14,0,0,1-.2,0Z" transform="translate(0 0)" style="opacity:0.8;mix-blend-mode:multiply;fill:url(#linear-gradient)"/><path d="M2.45,6.77a.15.15,0,0,1-.21-.06L0,2.45a.15.15,0,0,1,.07-.21L4.34,0a.15.15,0,0,1,.21.06L6.77,4.34a.16.16,0,0,1-.07.21Z" transform="translate(0 0)" style="opacity:0.8;mix-blend-mode:multiply;fill:url(#linear-gradient-2)"/><path d="M3.47,6.27a.13.13,0,0,1-.18,0L.55,3.46a.12.12,0,0,1,0-.17L3.36.55a.12.12,0,0,1,.18,0l2.74,2.8a.13.13,0,0,1,0,.18Z" transform="translate(0 0)" style="opacity:0.8;mix-blend-mode:multiply;fill:url(#linear-gradient-3)"/><path d="M3.5,5.74a.1.1,0,0,1-.15,0L1.12,3.45a.1.1,0,0,1,0-.14L3.41,1.07a.1.1,0,0,1,.14,0L5.79,3.36a.1.1,0,0,1,0,.14Z" transform="translate(0 0)" style="fill:url(#radial-gradient)"/><path d="M3.55,4.11A.63.63,0,0,1,3,3.94c-.14-.13-.08-.28,0-.29s.18.13.24.17.29.12.4,0-.09-.23-.25-.25-.51-.16-.49-.41a.42.42,0,0,1,.4-.39.66.66,0,0,1,.53.15c.15.13.07.27,0,.28S3.65,3,3.45,3s-.35.22-.09.29.54.09.64.33S3.84,4.09,3.55,4.11Zm.81-.58a.93.93,0,0,0,0-.12.9.9,0,0,0-.9-.91H3.32A.53.53,0,0,0,3,2.43.54.54,0,0,0,2.49,3a.55.55,0,0,0,.09.3.92.92,0,0,0,0,.14.9.9,0,0,0,.9.91l.16,0a.53.53,0,0,0,.28.08.54.54,0,0,0,.54-.54A.55.55,0,0,0,4.36,3.53Z" transform="translate(0 0)" style="fill:#0ba4e0"/></g></g></svg>