<svg xmlns="http://www.w3.org/2000/svg" xmlns:xlink="http://www.w3.org/1999/xlink" version="1.1" id="Слой_1" x="0px" y="0px" viewBox="0 0 64 64" style="enable-background:new 0 0 64 64;" xml:space="preserve" width="96" height="96">
<linearGradient id="SVGID_1__48205" gradientUnits="userSpaceOnUse" x1="32" y1="2.5" x2="32" y2="61.5762" spreadMethod="reflect">
	<stop offset="0" style="stop-color:#1A6DFF"/>
	<stop offset="1" style="stop-color:#C822FF"/>
</linearGradient>
<path style="fill:url(#SVGID_1__48205);" d="M43.024,58c-2.456,0-4.886-0.611-7.052-1.771c-4.628,0.758-9.307,0.18-13.54-1.619  c-2.925-1.236-5.558-3.015-7.823-5.284c-2.261-2.267-4.035-4.904-5.272-7.84c-1.284-3.041-1.935-6.271-1.935-9.602  c0-1.292,0.105-2.604,0.313-3.906C6.592,25.833,6,23.433,6,21.012c0-4.009,1.558-7.778,4.386-10.613C13.214,7.563,16.976,6,20.977,6  c2.319,0,4.631,0.551,6.71,1.597c1.418-0.251,2.872-0.379,4.326-0.379c3.324,0,6.547,0.652,9.58,1.938  c2.934,1.245,5.565,3.023,7.821,5.286c2.258,2.262,4.033,4.899,5.274,7.841c1.284,3.039,1.935,6.27,1.935,9.601  c0,1.365-0.117,2.75-0.348,4.12C57.405,38.154,58,40.562,58,42.99c0,4.011-1.558,7.78-4.386,10.613  C50.788,56.438,47.027,58,43.024,58z M36.328,54.136l0.314,0.178C38.586,55.417,40.793,56,43.024,56c3.467,0,6.725-1.353,9.173-3.81  C54.65,49.735,56,46.468,56,42.99c0-2.209-0.568-4.397-1.643-6.33l-0.174-0.313l0.064-0.353c0.25-1.366,0.376-2.749,0.376-4.11  c0-3.063-0.598-6.031-1.778-8.822c-1.14-2.703-2.771-5.128-4.847-7.206c-2.074-2.08-4.492-3.715-7.187-4.857  c-2.784-1.182-5.744-1.78-8.798-1.78c-1.437,0-2.872,0.135-4.266,0.401l-0.343,0.088l-0.343-0.182C25.19,8.527,23.086,8,20.977,8  c-3.466,0-6.725,1.354-9.175,3.811C9.35,14.269,8,17.536,8,21.012c0,2.2,0.564,4.382,1.633,6.308l0.171,0.309l-0.06,0.348  c-0.226,1.302-0.341,2.616-0.341,3.908c0,3.062,0.598,6.03,1.778,8.824c1.137,2.698,2.767,5.122,4.845,7.205  c2.082,2.085,4.5,3.719,7.188,4.855c3.986,1.693,8.405,2.209,12.76,1.431L36.328,54.136z"/>
<linearGradient id="SVGID_2__48205" gradientUnits="userSpaceOnUse" x1="32.0054" y1="15.75" x2="32.0054" y2="48.2971" spreadMethod="reflect">
	<stop offset="0" style="stop-color:#6DC7FF"/>
	<stop offset="1" style="stop-color:#E6ABFF"/>
</linearGradient>
<path style="fill:url(#SVGID_2__48205);" d="M32.108,46.378c-8.389,0-12.14-4.133-12.14-7.232c0-1.589,1.17-2.703,2.783-2.703  c3.59,0,2.66,5.167,9.357,5.167c3.428,0,5.322-1.866,5.322-3.776c0-1.148-0.565-2.421-2.823-2.979l-7.461-1.867  c-6.008-1.51-7.099-4.766-7.099-7.827c0-6.355,5.969-8.741,11.574-8.741c5.163,0,11.25,2.86,11.25,6.673  c0,1.634-1.411,2.584-3.023,2.584c-3.064,0-2.499-4.25-8.67-4.25c-3.062,0-4.759,1.39-4.759,3.379c0,1.985,2.419,2.619,4.518,3.099  l5.523,1.229c6.049,1.35,7.582,4.89,7.582,8.225C44.043,42.522,40.089,46.378,32.108,46.378z"/>
</svg>