<?xml version="1.0" encoding="utf-8"?>
<!-- Generator: Adobe Illustrator 22.0.0, SVG Export Plug-In . SVG Version: 6.00 Build 0)  -->
<svg version="1.1" id="Слой_1" xmlns="http://www.w3.org/2000/svg" xmlns:xlink="http://www.w3.org/1999/xlink" x="0px" y="0px"
	 viewBox="0 0 6.8 6.8" style="enable-background:new 0 0 6.8 6.8;" xml:space="preserve">
<style type="text/css">
	.st0{opacity:0.8;fill:url(#SVGID_1_);}
	.st1{opacity:0.8;fill:url(#SVGID_2_);}
	.st2{opacity:0.8;fill:url(#SVGID_3_);}
	.st3{fill:url(#SVGID_4_);}
	.st4{opacity:0.8;}
	.st5{fill-rule:evenodd;clip-rule:evenodd;fill:url(#SVGID_5_);}
</style>
<g>
	<g>
		<g>
			
				<linearGradient id="SVGID_1_" gradientUnits="userSpaceOnUse" x1="-275.4085" y1="879.6353" x2="-268.2639" y2="879.6353" gradientTransform="matrix(-0.7359 0.677 -0.677 -0.7359 398.9835 834.6928)">
				<stop  offset="0" style="stop-color:#3FFFD5"/>
				<stop  offset="0.4242" style="stop-color:#00A5BF"/>
				<stop  offset="0.9879" style="stop-color:#00225F"/>
			</linearGradient>
			<path class="st0" d="M0.1,3.4c-0.1-0.1-0.1-0.1,0-0.2l3.3-3.1C3.5,0,3.6,0,3.7,0.1l3.1,3.3c0.1,0.1,0,0.1,0,0.2L3.4,6.7
				c-0.1,0.1-0.1,0.1-0.2,0L0.1,3.4z"/>
			
				<linearGradient id="SVGID_2_" gradientUnits="userSpaceOnUse" x1="-439.2643" y1="318.2917" x2="-432.6855" y2="318.2917" gradientTransform="matrix(0.4629 0.8863 -0.8863 0.4629 486.8492 241.582)">
				<stop  offset="0" style="stop-color:#3FFFD5"/>
				<stop  offset="0.4242" style="stop-color:#00A5BF"/>
				<stop  offset="0.9879" style="stop-color:#00225F"/>
			</linearGradient>
			<path class="st1" d="M2.4,6.8c-0.1,0-0.2,0-0.2-0.1L0,2.4c0-0.1,0-0.2,0.1-0.2L4.3,0c0.1,0,0.2,0,0.2,0.1l2.2,4.3
				c0,0.1,0,0.2-0.1,0.2L2.4,6.8z"/>
			
				<linearGradient id="SVGID_3_" gradientUnits="userSpaceOnUse" x1="-390.9941" y1="193.1798" x2="-383.4099" y2="193.1798" gradientTransform="matrix(0.6991 0.715 -0.715 0.6991 411.81 144.7725)">
				<stop  offset="0" style="stop-color:#3FFFD5"/>
				<stop  offset="0.4242" style="stop-color:#00A5BF"/>
				<stop  offset="0.9879" style="stop-color:#00225F"/>
			</linearGradient>
			<path class="st2" d="M3.5,6.3c0,0.1-0.1,0-0.2,0L0.6,3.5c0,0,0-0.1,0-0.2l2.8-2.7c0-0.1,0.1-0.1,0.2,0l2.7,2.8c0,0.1,0,0.1,0,0.2
				L3.5,6.3z"/>
		</g>
		
			<radialGradient id="SVGID_4_" cx="19.414" cy="-0.8162" r="10.7916" gradientTransform="matrix(0.9999 1.670000e-02 -1.670000e-02 0.9999 -17.1575 5.2285)" gradientUnits="userSpaceOnUse">
			<stop  offset="0.2514" style="stop-color:#FFFFFF"/>
			<stop  offset="0.2671" style="stop-color:#F9F9F9"/>
			<stop  offset="0.2884" style="stop-color:#E8E8E8"/>
			<stop  offset="0.3127" style="stop-color:#CCCCCC"/>
			<stop  offset="0.3394" style="stop-color:#A4A4A4"/>
			<stop  offset="0.3679" style="stop-color:#727272"/>
			<stop  offset="0.3976" style="stop-color:#353535"/>
			<stop  offset="0.421" style="stop-color:#000000"/>
		</radialGradient>
		<path class="st3" d="M3.5,5.7c0,0-0.1,0-0.1,0L1.1,3.5c0,0,0-0.1,0-0.1l2.3-2.2c0,0,0.1,0,0.1,0l2.2,2.3c0,0,0,0.1,0,0.1L3.5,5.7z
			"/>
	</g>
	<g class="st4">
		<g>
			<g>
				<linearGradient id="SVGID_5_" gradientUnits="userSpaceOnUse" x1="3.1674" y1="1.1943" x2="3.5301" y2="4.7376">
					<stop  offset="0" style="stop-color:#3FFFD5"/>
					<stop  offset="0.4242" style="stop-color:#00A5BF"/>
					<stop  offset="0.9879" style="stop-color:#00225F"/>
				</linearGradient>
				<path class="st5" d="M2.3,4.1c0.2,0,0.3,0,0.5-0.1C2.8,4,2.9,4,2.9,3.9c-0.1,0-0.1,0-0.2-0.1C2.6,3.8,2.6,3.7,2.5,3.6
					c0,0,0,0,0,0c0.1,0,0.1,0,0.2,0c0,0-0.1,0-0.1,0C2.4,3.5,2.4,3.3,2.3,3.1c0,0,0,0,0,0c0.1,0,0.1,0,0.2,0c0,0-0.1,0-0.1-0.1
					C2.3,3,2.3,2.7,2.4,2.6c0,0,0,0,0,0C2.6,2.8,2.9,3,3.2,3c0,0,0.1,0,0.1,0c0,0,0,0,0,0c0-0.2,0.1-0.4,0.2-0.5
					C3.8,2.4,4,2.5,4.2,2.6c0,0,0,0,0.1,0c0.1,0,0.2-0.1,0.2-0.1c0,0,0,0,0,0c0,0.1-0.1,0.2-0.2,0.3c0.1,0,0.2,0,0.3-0.1
					c0,0,0,0,0,0C4.5,2.8,4.4,2.9,4.3,2.9c0,0,0,0,0,0c0,0.3-0.1,0.6-0.3,0.9C3.8,4.1,3.5,4.3,3.2,4.3C2.9,4.4,2.6,4.3,2.3,4.1
					C2.3,4.1,2.3,4.1,2.3,4.1z"/>
			</g>
		</g>
	</g>
</g>
</svg>
