<?xml version="1.0" encoding="utf-8"?>
<!-- Generator: Adobe Illustrator 22.0.0, SVG Export Plug-In . SVG Version: 6.00 Build 0)  -->
<svg version="1.1" id="Слой_1" xmlns="http://www.w3.org/2000/svg" xmlns:xlink="http://www.w3.org/1999/xlink" x="0px" y="0px"
	 viewBox="0 0 6.8 6.8" style="enable-background:new 0 0 6.8 6.8;" xml:space="preserve">
<style type="text/css">
	.st0{opacity:0.8;fill:url(#SVGID_1_);}
	.st1{opacity:0.8;fill:url(#SVGID_2_);}
	.st2{opacity:0.8;fill:url(#SVGID_3_);}
	.st3{fill:url(#SVGID_4_);}
	.st4{fill:#6FDA44;}
</style>
<g>
	<g>
		
			<linearGradient id="SVGID_1_" gradientUnits="userSpaceOnUse" x1="-277.23" y1="878.0201" x2="-270.085" y2="878.0201" gradientTransform="matrix(-0.7359 0.677 -0.677 -0.7359 396.5494 834.7369)">
			<stop  offset="0" style="stop-color:#F6FF3F"/>
			<stop  offset="0.4242" style="stop-color:#72BF00"/>
			<stop  offset="0.9879" style="stop-color:#095F00"/>
		</linearGradient>
		<path class="st0" d="M0.1,3.4c-0.1-0.1-0.1-0.1,0-0.2l3.3-3.1C3.5,0,3.6,0,3.7,0.1l3.1,3.3c0.1,0.1,0,0.1,0,0.2L3.4,6.7
			c-0.1,0.1-0.2,0.1-0.2,0L0.1,3.4z"/>
		
			<linearGradient id="SVGID_2_" gradientUnits="userSpaceOnUse" x1="-439.5215" y1="316.9618" x2="-432.9421" y2="316.9618" gradientTransform="matrix(0.4629 0.8863 -0.8863 0.4629 485.7897 242.4252)">
			<stop  offset="0" style="stop-color:#F6FF3F"/>
			<stop  offset="0.4242" style="stop-color:#72BF00"/>
			<stop  offset="0.9879" style="stop-color:#095F00"/>
		</linearGradient>
		<path class="st1" d="M2.4,6.8c-0.1,0-0.2,0-0.2-0.1L0,2.4c0-0.1,0-0.2,0.1-0.2L4.3,0c0.1,0,0.2,0,0.2,0.1l2.2,4.3
			c0,0.1,0,0.2-0.1,0.2L2.4,6.8z"/>
		
			<linearGradient id="SVGID_3_" gradientUnits="userSpaceOnUse" x1="-391.0396" y1="192.1674" x2="-383.4557" y2="192.1674" gradientTransform="matrix(0.6991 0.715 -0.715 0.6991 411.1175 145.5126)">
			<stop  offset="0" style="stop-color:#F6FF3F"/>
			<stop  offset="0.4242" style="stop-color:#72BF00"/>
			<stop  offset="0.9879" style="stop-color:#095F00"/>
		</linearGradient>
		<path class="st2" d="M3.5,6.3c0,0.1-0.1,0-0.2,0L0.6,3.5c0,0,0-0.1,0-0.2l2.8-2.7c0-0.1,0.1-0.1,0.2,0l2.7,2.8c0,0,0,0.1,0,0.2
			L3.5,6.3z"/>
	</g>
	
		<radialGradient id="SVGID_4_" cx="19.3602" cy="-0.8495" r="10.7894" gradientTransform="matrix(0.9999 1.670000e-02 -1.670000e-02 0.9999 -17.1652 5.2489)" gradientUnits="userSpaceOnUse">
		<stop  offset="0.2514" style="stop-color:#FFFFFF"/>
		<stop  offset="0.2671" style="stop-color:#F9F9F9"/>
		<stop  offset="0.2884" style="stop-color:#E8E8E8"/>
		<stop  offset="0.3127" style="stop-color:#CCCCCC"/>
		<stop  offset="0.3394" style="stop-color:#A4A4A4"/>
		<stop  offset="0.3679" style="stop-color:#727272"/>
		<stop  offset="0.3976" style="stop-color:#353535"/>
		<stop  offset="0.421" style="stop-color:#000000"/>
	</radialGradient>
	<path class="st3" d="M3.4,5.7c0,0-0.1,0-0.1,0L1.1,3.4c0,0,0-0.1,0-0.1l2.3-2.2c0,0,0.1,0,0.1,0l2.2,2.3c0,0,0,0.1,0,0.1L3.4,5.7z"
		/>
</g>
<path class="st4" d="M4.3,3.9C4.2,3.9,4,3.8,3.9,3.7l0-0.1l0,0c0-0.1,0.1-0.4,0.4-0.4c0.2,0,0.3,0.1,0.3,0.3
	C4.6,3.7,4.5,3.9,4.3,3.9z M4.3,2.9C4,2.9,3.7,3.1,3.6,3.4C3.5,3.2,3.4,2.9,3.3,2.7H3v0.9c0,0.2-0.1,0.3-0.3,0.3S2.4,3.7,2.4,3.5
	V2.7H2v0.9c0,0.4,0.3,0.7,0.7,0.7s0.7-0.3,0.7-0.7V3.4c0.1,0.1,0.1,0.3,0.2,0.4l-0.2,1h0.3l0.1-0.7C4,4.1,4.1,4.2,4.3,4.2
	C4.7,4.2,5,3.9,5,3.5C5,3.2,4.7,2.9,4.3,2.9"/>
</svg>
