<svg xmlns="http://www.w3.org/2000/svg" xmlns:xlink="http://www.w3.org/1999/xlink" viewBox="0 0 6.79 6.79"><defs><linearGradient id="linear-gradient" x1="-349.83" y1="800.99" x2="-342.68" y2="800.99" gradientTransform="matrix(-0.74, 0.68, -0.68, -0.74, 290.97, 827.2)" gradientUnits="userSpaceOnUse"><stop offset="0" stop-color="#3fffd5"/><stop offset="0.02" stop-color="#3ae7c6"/><stop offset="0.05" stop-color="#31beae"/><stop offset="0.08" stop-color="#299897"/><stop offset="0.12" stop-color="#227883"/><stop offset="0.16" stop-color="#1d5c73"/><stop offset="0.2" stop-color="#184666"/><stop offset="0.26" stop-color="#14355b"/><stop offset="0.32" stop-color="#122a54"/><stop offset="0.42" stop-color="#102350"/><stop offset="0.68" stop-color="#10214f"/><stop offset="0.99" stop-color="#10214f"/></linearGradient><linearGradient id="linear-gradient-2" x1="-445.49" y1="258.39" x2="-438.91" y2="258.39" gradientTransform="translate(261.77 444.55) rotate(90)" xlink:href="#linear-gradient"/><linearGradient id="linear-gradient-3" x1="-389.06" y1="148.14" x2="-381.48" y2="148.14" gradientTransform="translate(378.26 174.88) rotate(45.64)" xlink:href="#linear-gradient"/><radialGradient id="radial-gradient" cx="19.82" cy="-1.7" r="10.79" gradientTransform="translate(-17.58 6.1) rotate(0.96)" gradientUnits="userSpaceOnUse"><stop offset="0.25" stop-color="#fff"/><stop offset="0.27" stop-color="#f9f9f9"/><stop offset="0.29" stop-color="#e8e8e8"/><stop offset="0.31" stop-color="#ccc"/><stop offset="0.34" stop-color="#a4a4a4"/><stop offset="0.37" stop-color="#727272"/><stop offset="0.4" stop-color="#353535"/><stop offset="0.42"/></radialGradient></defs><title>facebook_my</title><g style="isolation:isolate"><g id="Слой_1" data-name="Слой 1"><path d="M.13,3.37a.15.15,0,0,1,0-.21L3.47.1a.14.14,0,0,1,.21,0L6.75,3.44a.15.15,0,0,1,0,.2L3.4,6.71a.14.14,0,0,1-.2,0Z" style="opacity:0.8;mix-blend-mode:multiply;fill:url(#linear-gradient)"/><path d="M1,.84H5.8A.15.15,0,0,1,5.95,1V5.8a.15.15,0,0,1-.15.15H1a.16.16,0,0,1-.16-.16V1A.15.15,0,0,1,1,.84Z" transform="translate(-1.19 1.96) rotate(-27.58)" style="opacity:0.8;mix-blend-mode:multiply;fill:url(#linear-gradient-2)"/><path d="M3.47,6.27a.12.12,0,0,1-.18,0L.55,3.46a.12.12,0,0,1,0-.17L3.36.55a.12.12,0,0,1,.18,0l2.74,2.8a.13.13,0,0,1,0,.18Z" style="opacity:0.8;mix-blend-mode:multiply;fill:url(#linear-gradient-3)"/><path d="M3.5,5.74a.1.1,0,0,1-.15,0L1.12,3.45a.1.1,0,0,1,0-.14L3.41,1.07a.1.1,0,0,1,.14,0L5.79,3.36a.1.1,0,0,1,0,.14Z" style="fill:url(#radial-gradient)"/><path d="M4.05,2H3.62c-.26,0-.54.11-.54.48,0,.13,0,.25,0,.39h-.3v.47h.31V4.73h.56V3.36H4l0-.47H3.64s0-.21,0-.27.15-.14.16-.14h.25V2h0Z" style="fill:#001b4f"/></g></g></svg>