<svg width="789" height="517" viewBox="0 0 789 517" fill="none" xmlns="http://www.w3.org/2000/svg">
<path d="M244 348H207L356 516.5H395L244 348Z" fill="white"/>
<path d="M353 0L61.5 308H98.5L365 25.5C394.5 25.3333 485 25.1 611 25.5C737 25.9 763.833 112.333 761.5 155.5C763.1 279.9 661.833 303.667 611 300H425.5V327.5C472.667 327.667 575.8 327.9 611 327.5C655 327 789 327.5 789 155.5C789 19.8947 670.5 -2.86102e-06 611 0H353Z" fill="white"/>
<path d="M27 0H0L1.5 513H27V0Z" fill="white"/>
<path d="M452 373H425L426.5 517H452V373Z" fill="#64FFDA"/>
</svg>
