<?xml version="1.0" encoding="utf-8"?>
<!-- Generator: Adobe Illustrator 22.0.0, SVG Export Plug-In . SVG Version: 6.00 Build 0)  -->
<svg version="1.1" id="Слой_1" xmlns="http://www.w3.org/2000/svg" xmlns:xlink="http://www.w3.org/1999/xlink" x="0px" y="0px"
	 viewBox="0 0 771.3 54.2" style="enable-background:new 0 0 771.3 54.2;" xml:space="preserve">
<style type="text/css">
	.st0{enable-background:new    ;}
</style>
<g class="st0">
	<path d="M31.7,53.1c-1.7-2.6-3.6-5.2-5.7-7.7c-2.1-2.6-4.4-5-6.7-7.2c-2.4-2.3-4.7-4.3-7.2-6.2c-2.4-1.9-4.8-3.4-7-4.7v25.8H0v-52
		h5.1v24.2c1.9-1.7,4-3.7,6.3-5.9c2.3-2.2,4.6-4.5,6.9-6.7c2.3-2.2,4.4-4.4,6.4-6.4c2-2,3.6-3.8,4.8-5.2h6.2
		c-1.5,1.5-3.2,3.4-5.3,5.5c-2.1,2.1-4.2,4.3-6.5,6.6c-2.3,2.2-4.6,4.5-6.9,6.6c-2.3,2.2-4.3,4.1-6.1,5.7c1.4,0.9,3,2,4.7,3.3
		c1.7,1.3,3.4,2.8,5.1,4.4c1.7,1.6,3.4,3.2,5.1,5c1.7,1.7,3.2,3.5,4.7,5.2c1.5,1.8,2.8,3.5,4,5.1s2.1,3.2,2.9,4.6H31.7z"/>
	<path d="M89.8,27.1c0,4.5-0.7,8.4-1.9,11.8c-1.3,3.4-3.1,6.2-5.3,8.5c-2.2,2.3-4.8,4-7.8,5.1c-3,1.1-6.1,1.7-9.4,1.7
		c-3.3,0-6.4-0.6-9.4-1.7c-3-1.2-5.5-2.9-7.8-5.1c-2.2-2.3-4-5.1-5.3-8.5c-1.3-3.4-2-7.3-2-11.8c0-4.4,0.7-8.4,2-11.7
		c1.3-3.4,3.1-6.2,5.3-8.5c2.2-2.3,4.8-4,7.8-5.1C59,0.6,62.1,0,65.4,0c3.3,0,6.4,0.6,9.4,1.7c3,1.2,5.5,2.9,7.8,5.1
		c2.2,2.3,4,5.1,5.3,8.5C89.1,18.7,89.8,22.6,89.8,27.1z M84.4,27.1c0-3.5-0.5-6.6-1.4-9.4c-0.9-2.8-2.2-5.1-3.8-7.1
		c-1.7-1.9-3.6-3.4-6-4.5c-2.3-1-4.9-1.5-7.8-1.5s-5.5,0.5-7.8,1.5c-2.3,1-4.3,2.5-6,4.5c-1.7,2-2.9,4.3-3.8,7.1
		c-0.9,2.8-1.3,5.9-1.3,9.4c0,3.5,0.5,6.6,1.3,9.4c0.9,2.8,2.2,5.1,3.8,7.1c1.6,2,3.6,3.5,6,4.5c2.3,1.1,4.9,1.6,7.8,1.6
		s5.5-0.5,7.8-1.6c2.3-1,4.3-2.5,6-4.5c1.7-1.9,2.9-4.3,3.8-7.1C83.9,33.7,84.4,30.6,84.4,27.1z"/>
	<path d="M136.6,53.1c-1-1.7-2.2-3.8-3.6-6.2s-3.1-4.9-4.9-7.5c-1.8-2.7-3.6-5.4-5.6-8.2c-1.9-2.8-3.9-5.6-5.8-8.3
		c-1.9-2.7-3.8-5.2-5.6-7.5c-1.8-2.3-3.5-4.4-4.9-6.1v43.8h-5v-52h4c2.6,2.8,5.3,6.1,8.2,9.9c2.9,3.7,5.8,7.5,8.6,11.4
		c2.8,3.9,5.4,7.7,7.8,11.4c2.4,3.7,4.4,6.9,6,9.7V1.1h5v52H136.6z"/>
	<path d="M165.5,49.8c4,0,7.2-0.7,9.5-2.2c2.3-1.5,3.4-3.9,3.4-7.2c0-1.9-0.4-3.5-1.1-4.8s-1.7-2.4-2.9-3.2
		c-1.2-0.9-2.6-1.6-4.1-2.2c-1.6-0.6-3.2-1.3-4.9-2c-2.2-0.8-4.1-1.7-5.8-2.6c-1.7-0.9-3.2-1.9-4.3-3c-1.2-1.1-2.1-2.4-2.7-3.9
		s-0.9-3.2-0.9-5.1c0-4.4,1.5-7.8,4.4-10.1c2.9-2.3,7-3.4,12.3-3.4c1.4,0,2.8,0.1,4.1,0.3c1.3,0.2,2.6,0.5,3.8,0.8
		c1.2,0.3,2.3,0.7,3.2,1.1c1,0.4,1.8,0.8,2.4,1.3l-1.8,4.3c-1.5-1-3.2-1.8-5.3-2.4c-2.1-0.6-4.3-0.9-6.7-0.9c-1.6,0-3.2,0.2-4.5,0.5
		c-1.4,0.3-2.6,0.9-3.6,1.6c-1,0.7-1.8,1.6-2.4,2.7c-0.6,1.1-0.9,2.4-0.9,4c0,1.6,0.3,3,0.9,4.1c0.6,1.1,1.4,2.1,2.5,2.8
		c1.1,0.8,2.3,1.5,3.8,2.2c1.5,0.7,3,1.3,4.7,2c2,0.9,4,1.7,5.8,2.5c1.8,0.9,3.4,1.9,4.8,3c1.3,1.2,2.4,2.5,3.2,4.2
		c0.8,1.6,1.2,3.7,1.2,6.1c0,4.7-1.6,8.2-4.9,10.6c-3.3,2.4-7.7,3.5-13.3,3.5c-2,0-3.8-0.1-5.5-0.4c-1.7-0.3-3.1-0.6-4.4-0.9
		c-1.3-0.4-2.4-0.8-3.3-1.2c-0.9-0.4-1.6-0.8-2.1-1.1l1.7-4.4c0.5,0.3,1.2,0.7,2,1c0.8,0.4,1.8,0.8,3,1.2s2.4,0.7,3.9,0.9
		C162.2,49.7,163.8,49.8,165.5,49.8z"/>
	<path d="M226.1,1.1v4.4h-16.7v47.5h-5.1V5.5h-16.7V1.1H226.1z"/>
	<path d="M265.3,53.1c-1-2.6-1.9-5-2.7-7.4s-1.6-4.7-2.4-6.9h-25.4c-0.9,2.2-1.7,4.5-2.5,6.9c-0.8,2.4-1.7,4.8-2.6,7.3h-5.3
		c2-5.4,3.8-10.5,5.6-15.1c1.8-4.7,3.5-9.1,5.2-13.3s3.4-8.2,5-12c1.7-3.8,3.4-7.7,5.2-11.6h4.5c1.8,3.8,3.6,7.7,5.2,11.5
		c1.6,3.9,3.3,7.9,5,12s3.4,8.6,5.1,13.3c1.7,4.7,3.7,9.7,5.7,15.1H265.3z M247.5,7c-1.9,4.3-3.7,8.7-5.5,13.1
		c-1.8,4.4-3.6,9.2-5.5,14.4h22.2c-1.9-5.2-3.8-10-5.6-14.4C251.2,15.6,249.3,11.3,247.5,7z"/>
	<path d="M313.8,53.1c-1-1.7-2.2-3.8-3.6-6.2c-1.5-2.4-3.1-4.9-4.9-7.5c-1.8-2.7-3.6-5.4-5.6-8.2c-1.9-2.8-3.9-5.6-5.8-8.3
		c-1.9-2.7-3.8-5.2-5.6-7.5c-1.8-2.3-3.5-4.4-4.9-6.1v43.8h-5v-52h4c2.6,2.8,5.3,6.1,8.2,9.9c2.9,3.7,5.8,7.5,8.6,11.4
		c2.8,3.9,5.4,7.7,7.8,11.4c2.4,3.7,4.4,6.9,6,9.7V1.1h5v52H313.8z"/>
	<path d="M364.6,1.1v4.4h-16.7v47.5h-5.1V5.5h-16.7V1.1H364.6z"/>
	<path d="M372.7,1.1h5.1v52h-5.1V1.1z"/>
	<path d="M426.7,53.1c-1-1.7-2.2-3.8-3.6-6.2c-1.5-2.4-3.1-4.9-4.9-7.5c-1.8-2.7-3.6-5.4-5.6-8.2c-1.9-2.8-3.9-5.6-5.8-8.3
		c-1.9-2.7-3.8-5.2-5.6-7.5c-1.8-2.3-3.5-4.4-4.9-6.1v43.8h-5v-52h4c2.6,2.8,5.3,6.1,8.2,9.9c2.9,3.7,5.8,7.5,8.6,11.4
		c2.8,3.9,5.4,7.7,7.8,11.4c2.4,3.7,4.4,6.9,6,9.7V1.1h5v52H426.7z"/>
	<path d="M491.8,0.7c7.3,0,12.8,1.4,16.4,4.2c3.6,2.8,5.4,6.8,5.4,11.9c0,3-0.5,5.5-1.6,7.5c-1,2.1-2.5,3.8-4.5,5
		c-2,1.3-4.3,2.2-7.2,2.8c-2.8,0.6-6,0.9-9.6,0.9h-7.1v20.1h-5.1v-51c1.8-0.5,3.9-0.9,6.3-1.1C487.4,0.8,489.7,0.7,491.8,0.7z
		 M492,5.1c-1.9,0-3.5,0.1-4.8,0.2c-1.3,0.1-2.5,0.2-3.4,0.3v22.9h6.5c2.7,0,5.2-0.2,7.5-0.5c2.2-0.3,4.1-0.9,5.7-1.8
		c1.6-0.9,2.8-2.1,3.6-3.6c0.8-1.5,1.3-3.5,1.3-5.9c0-2.3-0.5-4.2-1.4-5.7c-0.9-1.5-2.2-2.7-3.7-3.6c-1.5-0.9-3.3-1.5-5.2-1.8
		C496,5.3,494,5.1,492,5.1z"/>
	<path d="M569.7,27.1c0,4.5-0.7,8.4-2,11.8c-1.3,3.4-3.1,6.2-5.3,8.5c-2.2,2.3-4.8,4-7.8,5.1c-3,1.1-6.1,1.7-9.4,1.7
		c-3.3,0-6.4-0.6-9.4-1.7c-3-1.2-5.5-2.9-7.8-5.1c-2.2-2.3-4-5.1-5.3-8.5c-1.3-3.4-1.9-7.3-1.9-11.8c0-4.4,0.6-8.4,1.9-11.7
		c1.3-3.4,3.1-6.2,5.3-8.5c2.2-2.3,4.8-4,7.8-5.1c2.9-1.1,6.1-1.7,9.4-1.7c3.3,0,6.4,0.6,9.4,1.7c2.9,1.2,5.5,2.9,7.8,5.1
		c2.2,2.3,4,5.1,5.3,8.5C569,18.7,569.7,22.6,569.7,27.1z M564.3,27.1c0-3.5-0.5-6.6-1.3-9.4c-0.9-2.8-2.2-5.1-3.8-7.1
		c-1.7-1.9-3.6-3.4-6-4.5c-2.3-1-4.9-1.5-7.8-1.5c-2.9,0-5.5,0.5-7.8,1.5c-2.3,1-4.3,2.5-6,4.5c-1.6,2-2.9,4.3-3.8,7.1
		c-0.9,2.8-1.4,5.9-1.4,9.4c0,3.5,0.5,6.6,1.4,9.4c0.9,2.8,2.2,5.1,3.8,7.1c1.7,2,3.6,3.5,6,4.5c2.3,1.1,4.9,1.6,7.8,1.6
		c2.9,0,5.5-0.5,7.8-1.6c2.3-1,4.3-2.5,6-4.5c1.6-1.9,2.9-4.3,3.8-7.1C563.8,33.7,564.3,30.6,564.3,27.1z"/>
	<path d="M610.6,48.7v4.4h-29.5v-52h5.1v47.5H610.6z"/>
	<path d="M662.8,27.1c0,4.5-0.7,8.4-2,11.8c-1.3,3.4-3.1,6.2-5.3,8.5c-2.2,2.3-4.8,4-7.8,5.1c-3,1.1-6.1,1.7-9.4,1.7
		c-3.3,0-6.4-0.6-9.4-1.7c-3-1.2-5.5-2.9-7.8-5.1c-2.2-2.3-4-5.1-5.3-8.5c-1.3-3.4-1.9-7.3-1.9-11.8c0-4.4,0.6-8.4,1.9-11.7
		c1.3-3.4,3.1-6.2,5.3-8.5c2.2-2.3,4.8-4,7.8-5.1c2.9-1.1,6.1-1.7,9.4-1.7c3.3,0,6.4,0.6,9.4,1.7c2.9,1.2,5.5,2.9,7.8,5.1
		c2.2,2.3,4,5.1,5.3,8.5C662.2,18.7,662.8,22.6,662.8,27.1z M657.4,27.1c0-3.5-0.5-6.6-1.3-9.4c-0.9-2.8-2.2-5.1-3.8-7.1
		c-1.7-1.9-3.6-3.4-6-4.5c-2.3-1-4.9-1.5-7.8-1.5c-2.9,0-5.5,0.5-7.8,1.5c-2.3,1-4.3,2.5-6,4.5c-1.6,2-2.9,4.3-3.8,7.1
		c-0.9,2.8-1.4,5.9-1.4,9.4c0,3.5,0.5,6.6,1.4,9.4c0.9,2.8,2.2,5.1,3.8,7.1c1.7,2,3.6,3.5,6,4.5c2.3,1.1,4.9,1.6,7.8,1.6
		c2.9,0,5.5-0.5,7.8-1.6c2.3-1,4.3-2.5,6-4.5c1.6-1.9,2.9-4.3,3.8-7.1C657,33.7,657.4,30.6,657.4,27.1z"/>
	<path d="M685.4,49.8c4,0,7.2-0.7,9.5-2.2c2.3-1.5,3.4-3.9,3.4-7.2c0-1.9-0.4-3.5-1.1-4.8s-1.7-2.4-2.9-3.2
		c-1.2-0.9-2.6-1.6-4.1-2.2c-1.6-0.6-3.2-1.3-4.9-2c-2.2-0.8-4.1-1.7-5.8-2.6c-1.7-0.9-3.2-1.9-4.3-3c-1.2-1.1-2.1-2.4-2.7-3.9
		s-0.9-3.2-0.9-5.1c0-4.4,1.5-7.8,4.4-10.1c2.9-2.3,7-3.4,12.3-3.4c1.4,0,2.8,0.1,4.1,0.3c1.3,0.2,2.6,0.5,3.8,0.8
		c1.2,0.3,2.3,0.7,3.2,1.1c1,0.4,1.8,0.8,2.4,1.3L700,7.7c-1.5-1-3.2-1.8-5.3-2.4c-2.1-0.6-4.3-0.9-6.7-0.9c-1.6,0-3.2,0.2-4.5,0.5
		c-1.4,0.3-2.6,0.9-3.6,1.6c-1,0.7-1.8,1.6-2.4,2.7c-0.6,1.1-0.9,2.4-0.9,4c0,1.6,0.3,3,0.9,4.1c0.6,1.1,1.4,2.1,2.5,2.8
		c1.1,0.8,2.3,1.5,3.8,2.2c1.5,0.7,3,1.3,4.7,2c2,0.9,4,1.7,5.8,2.5c1.8,0.9,3.4,1.9,4.8,3c1.3,1.2,2.4,2.5,3.2,4.2
		c0.8,1.6,1.2,3.7,1.2,6.1c0,4.7-1.6,8.2-4.9,10.6c-3.3,2.4-7.7,3.5-13.3,3.5c-2,0-3.8-0.1-5.5-0.4c-1.7-0.3-3.1-0.6-4.4-0.9
		c-1.3-0.4-2.4-0.8-3.3-1.2c-0.9-0.4-1.6-0.8-2.1-1.1l1.7-4.4c0.5,0.3,1.2,0.7,2,1c0.8,0.4,1.8,0.8,3,1.2s2.4,0.7,3.9,0.9
		C682.1,49.7,683.7,49.8,685.4,49.8z"/>
	<path d="M713,1.1h5.1v52H713V1.1z"/>
	<path d="M767,53.1c-1-1.7-2.2-3.8-3.6-6.2c-1.5-2.4-3.1-4.9-4.9-7.5c-1.8-2.7-3.6-5.4-5.6-8.2c-1.9-2.8-3.9-5.6-5.8-8.3
		c-1.9-2.7-3.8-5.2-5.6-7.5c-1.8-2.3-3.5-4.4-4.9-6.1v43.8h-5v-52h4c2.6,2.8,5.3,6.1,8.2,9.9c2.9,3.7,5.8,7.5,8.6,11.4
		c2.8,3.9,5.4,7.7,7.8,11.4c2.4,3.7,4.4,6.9,6,9.7V1.1h5v52H767z"/>
</g>
</svg>
