<svg xmlns="http://www.w3.org/2000/svg" xmlns:xlink="http://www.w3.org/1999/xlink" viewBox="0 0 6.79 6.79"><defs><linearGradient id="linear-gradient" x1="-350.12" y1="802.32" x2="-342.98" y2="802.32" gradientTransform="matrix(-0.74, 0.68, -0.68, -0.74, 291.66, 828.38)" gradientUnits="userSpaceOnUse"><stop offset="0" stop-color="#3fffd5"/><stop offset="0.42" stop-color="#00a5bf"/><stop offset="0.99" stop-color="#00225f"/></linearGradient><linearGradient id="linear-gradient-2" x1="-446.07" y1="258.88" x2="-439.49" y2="258.88" gradientTransform="translate(437.34 275.12) rotate(62.42)" xlink:href="#linear-gradient"/><linearGradient id="linear-gradient-3" x1="-389.55" y1="148.44" x2="-381.97" y2="148.44" gradientTransform="translate(378.81 175.01) rotate(45.64)" xlink:href="#linear-gradient"/><radialGradient id="radial-gradient" cx="19.81" cy="-1.7" r="10.79" gradientTransform="translate(-17.56 6.1) rotate(0.96)" gradientUnits="userSpaceOnUse"><stop offset="0.25" stop-color="#fff"/><stop offset="0.27" stop-color="#f9f9f9"/><stop offset="0.29" stop-color="#e8e8e8"/><stop offset="0.31" stop-color="#ccc"/><stop offset="0.34" stop-color="#a4a4a4"/><stop offset="0.37" stop-color="#727272"/><stop offset="0.4" stop-color="#353535"/><stop offset="0.42"/></radialGradient><linearGradient id="linear-gradient-4" x1="3.17" y1="1.19" x2="3.53" y2="4.74" gradientTransform="matrix(1, 0, 0, 1, 0, 0)" xlink:href="#linear-gradient"/></defs><title>twitter_my</title><g style="isolation:isolate"><g id="Слой_1" data-name="Слой 1"><path d="M.13,3.37a.15.15,0,0,1,0-.21L3.47.1a.14.14,0,0,1,.21,0L6.75,3.44a.15.15,0,0,1,0,.2L3.4,6.71a.14.14,0,0,1-.2,0Z" style="opacity:0.8;mix-blend-mode:multiply;fill:url(#linear-gradient)"/><path d="M2.45,6.77a.15.15,0,0,1-.21-.06L0,2.45a.15.15,0,0,1,.07-.21L4.34,0a.15.15,0,0,1,.21.06L6.77,4.34a.15.15,0,0,1-.07.21Z" style="opacity:0.8;mix-blend-mode:multiply;fill:url(#linear-gradient-2)"/><path d="M3.47,6.27a.13.13,0,0,1-.18,0L.55,3.46a.12.12,0,0,1,0-.18L3.36.55a.12.12,0,0,1,.18,0l2.74,2.8a.13.13,0,0,1,0,.18Z" style="opacity:0.8;mix-blend-mode:multiply;fill:url(#linear-gradient-3)"/><path d="M3.5,5.74a.1.1,0,0,1-.15,0L1.12,3.45a.1.1,0,0,1,0-.14L3.41,1.07a.1.1,0,0,1,.14,0L5.79,3.36a.1.1,0,0,1,0,.14Z" style="fill:url(#radial-gradient)"/><g style="opacity:0.8;mix-blend-mode:multiply"><path d="M2.26,4.12A1,1,0,0,0,2.75,4a.89.89,0,0,0,.2-.12.48.48,0,0,1-.43-.3s0,0,0,0a.37.37,0,0,0,.17,0l-.11,0a.47.47,0,0,1-.25-.4s0,0,0,0a.45.45,0,0,0,.18,0L2.47,3.1a.48.48,0,0,1-.07-.53s0,0,0,0A1.33,1.33,0,0,0,3.24,3h.11s0,0,0,0a.47.47,0,0,1,.79-.42,0,0,0,0,0,.05,0,.92.92,0,0,0,.25-.1h0a.47.47,0,0,1-.2.26.92.92,0,0,0,.25-.07s0,0,0,0a.92.92,0,0,1-.19.2,0,0,0,0,0,0,0A1.36,1.36,0,0,1,4,3.87a1.24,1.24,0,0,1-.78.44,1.34,1.34,0,0,1-.93-.18Z" style="fill-rule:evenodd;fill:url(#linear-gradient-4)"/></g></g></g></svg>