<svg xmlns="http://www.w3.org/2000/svg" xmlns:xlink="http://www.w3.org/1999/xlink" viewBox="0 0 6.79 6.79"><defs><linearGradient id="linear-gradient" x1="-354.28" y1="801.62" x2="-347.14" y2="801.62" gradientTransform="matrix(-0.74, 0.68, -0.68, -0.74, 288.13, 830.68)" gradientUnits="userSpaceOnUse"><stop offset="0" stop-color="#f6ff3f"/><stop offset="0.42" stop-color="#72bf00"/><stop offset="0.99" stop-color="#095f00"/></linearGradient><linearGradient id="linear-gradient-2" x1="-447.67" y1="257.16" x2="-441.09" y2="257.16" gradientTransform="matrix(0, 1, -1, 0, 260.54, 446.73)" xlink:href="#linear-gradient"/><linearGradient id="linear-gradient-3" x1="-390.54" y1="147" x2="-382.96" y2="147" gradientTransform="translate(378.47 176.74) rotate(45.64)" xlink:href="#linear-gradient"/><radialGradient id="radial-gradient" cx="19.8" cy="-1.73" r="10.79" gradientTransform="translate(-17.56 6.14) rotate(0.96)" gradientUnits="userSpaceOnUse"><stop offset="0.25" stop-color="#fff"/><stop offset="0.27" stop-color="#f9f9f9"/><stop offset="0.29" stop-color="#e8e8e8"/><stop offset="0.31" stop-color="#ccc"/><stop offset="0.34" stop-color="#a4a4a4"/><stop offset="0.37" stop-color="#727272"/><stop offset="0.4" stop-color="#353535"/><stop offset="0.42"/></radialGradient></defs><title>upwork_my</title><g style="isolation:isolate"><g id="Слой_1" data-name="Слой 1"><path d="M.13,3.37a.15.15,0,0,1,0-.21L3.47.1a.14.14,0,0,1,.21,0L6.75,3.44a.15.15,0,0,1,0,.2L3.4,6.71a.14.14,0,0,1-.2,0Z" style="opacity:0.8;mix-blend-mode:multiply;fill:url(#linear-gradient)"/><rect x="0.84" y="0.84" width="5.11" height="5.11" rx="0.15" ry="0.15" transform="translate(-1.19 1.96) rotate(-27.58)" style="opacity:0.8;mix-blend-mode:multiply;fill:url(#linear-gradient-2)"/><path d="M3.47,6.27a.13.13,0,0,1-.18,0L.55,3.46a.12.12,0,0,1,0-.18L3.36.54a.12.12,0,0,1,.18,0l2.74,2.8a.13.13,0,0,1,0,.18Z" style="opacity:0.8;mix-blend-mode:multiply;fill:url(#linear-gradient-3)"/><path d="M3.5,5.74a.1.1,0,0,1-.15,0L1.12,3.45a.1.1,0,0,1,0-.14L3.41,1.07a.1.1,0,0,1,.14,0L5.79,3.36a.1.1,0,0,1,0,.14Z" style="fill:url(#radial-gradient)"/><path d="M4.25,2.77a.61.61,0,0,0-.59.48,2.6,2.6,0,0,1-.3-.65h-.3v.79a.28.28,0,0,1-.57,0V2.61H2.2V3.4a.59.59,0,1,0,1.17,0V3.26a2.77,2.77,0,0,0,.22.36L3.4,4.5h.31l.13-.64A.75.75,0,0,0,4.25,4a.6.6,0,0,0,0-1.21Zm0,.91a.55.55,0,0,1-.34-.13l0-.12h0c0-.13.09-.34.31-.34a.3.3,0,0,1,.3.3A.32.32,0,0,1,4.25,3.68Z" style="fill:#6fda44"/></g></g></svg>