<?xml version="1.0" encoding="utf-8"?>
<!-- Generator: Adobe Illustrator 22.0.0, SVG Export Plug-In . SVG Version: 6.00 Build 0)  -->
<svg version="1.1" id="Слой_1" xmlns="http://www.w3.org/2000/svg" xmlns:xlink="http://www.w3.org/1999/xlink" x="0px" y="0px"
	 viewBox="0 0 96 96" style="enable-background:new 0 0 96 96;" xml:space="preserve">
<style type="text/css">
	.st0{fill:url(#SVGID_1_);}
	.st1{fill:url(#SVGID_2_);}
</style>
<linearGradient id="SVGID_1_" gradientUnits="userSpaceOnUse" x1="-35" y1="158.1667" x2="-35" y2="106.9826" gradientTransform="matrix(1.5 0 0 -1.5 100.5 247.5)">
	<stop  offset="0" style="stop-color:#1A6DFF"/>
	<stop  offset="1" style="stop-color:#C822FF"/>
</linearGradient>
<path class="st0" d="M75,85.5H21c-5.8,0-10.5-4.7-10.5-10.5V21c0-5.8,4.7-10.5,10.5-10.5h54c5.8,0,10.5,4.7,10.5,10.5v54
	C85.5,80.8,80.8,85.5,75,85.5z M21,13.5c-4.1,0-7.5,3.4-7.5,7.5v54c0,4.1,3.4,7.5,7.5,7.5h54c4.1,0,7.5-3.4,7.5-7.5V21
	c0-4.1-3.4-7.5-7.5-7.5H21z"/>
<linearGradient id="SVGID_2_" gradientUnits="userSpaceOnUse" x1="47.9863" y1="30.2644" x2="48.0194" y2="69.2342">
	<stop  offset="0" style="stop-color:#6DC7FF"/>
	<stop  offset="1" style="stop-color:#E6ABFF"/>
</linearGradient>
<path class="st1" d="M63.2,52.5c-2.6,0-5-1.1-7.1-2.9l0.5-2.5l0-0.1c0.5-2.7,2-7.1,6.6-7.1c3.5,0,6.3,2.8,6.3,6.3
	C69.5,49.7,66.7,52.5,63.2,52.5z M63.2,33.6c-5.9,0-10.5,3.8-12.3,10.1c-2.8-4.3-5-9.4-6.2-13.7h-6.3v16.5c0,3.3-2.7,5.9-5.9,5.9
	s-5.9-2.6-5.9-5.9V30h-6.3v16.5c0,6.8,5.5,12.3,12.2,12.3s12.3-5.5,12.3-12.3v-2.8c1.2,2.6,2.7,5.2,4.6,7.5l-3.9,18.3h6.5l2.8-13.3
	c2.5,1.6,5.3,2.6,8.6,2.6c7,0,12.6-5.7,12.6-12.7C75.9,39.2,70.2,33.6,63.2,33.6"/>
</svg>
